<svg width="35" height="35" viewBox="0 0 35 35" fill="none" xmlns="http://www.w3.org/2000/svg">
<path d="M13.125 17.5H21.875" stroke="black" stroke-width="3" stroke-linecap="round" stroke-linejoin="round"/>
<path d="M21.875 8.75H23.3333C25.654 8.75 27.8796 9.67187 29.5205 11.3128C31.1615 12.9538 32.0833 15.1794 32.0833 17.5C32.0833 19.8206 31.1615 22.0462 29.5205 23.6872C27.8796 25.3281 25.654 26.25 23.3333 26.25H21.875" stroke="black" stroke-width="3" stroke-linecap="round" stroke-linejoin="round"/>
<path d="M13.125 26.25H11.6667C9.34601 26.25 7.12042 25.3281 5.47947 23.6872C3.83853 22.0462 2.91666 19.8206 2.91666 17.5C2.91666 15.1794 3.83853 12.9538 5.47947 11.3128C7.12042 9.67187 9.34601 8.75 11.6667 8.75H13.125" stroke="black" stroke-width="3" stroke-linecap="round" stroke-linejoin="round"/>
</svg>
