<svg width="28" height="28" viewBox="0 0 28 28" fill="none" xmlns="http://www.w3.org/2000/svg">
<path d="M1.86664 7.46667C1.86664 6.22899 2.3583 5.04201 3.23347 4.16684C4.10864 3.29167 5.29563 2.8 6.5333 2.8H20.5333C21.771 2.8 22.958 3.29167 23.8331 4.16684C24.7083 5.04201 25.2 6.22899 25.2 7.46667V21.4667C25.2 22.7043 24.7083 23.8913 23.8331 24.7665C22.958 25.6417 21.771 26.1333 20.5333 26.1333H6.5333C5.29563 26.1333 4.10864 25.6417 3.23347 24.7665C2.3583 23.8913 1.86664 22.7043 1.86664 21.4667V7.46667Z" stroke="black" stroke-width="3" stroke-linecap="round" stroke-linejoin="round"/>
<path d="M9.44993 13.3C11.0608 13.3 12.3666 11.9942 12.3666 10.3833C12.3666 8.77251 11.0608 7.46667 9.44993 7.46667C7.8391 7.46667 6.53326 8.77251 6.53326 10.3833C6.53326 11.9942 7.8391 13.3 9.44993 13.3Z" stroke="black" stroke-width="3" stroke-linecap="round" stroke-linejoin="round"/>
<path d="M16.4803 15.1912L6.53326 26.1333H20.6884C21.885 26.1333 23.0325 25.658 23.8785 24.8119C24.7246 23.9659 25.1999 22.8184 25.1999 21.6218V21.4667C25.1999 20.923 24.9958 20.7142 24.6283 20.3117L19.9266 15.1842C19.7075 14.9451 19.4409 14.7544 19.144 14.6241C18.847 14.4939 18.5262 14.4269 18.2019 14.4276C17.8776 14.4282 17.557 14.4965 17.2606 14.628C16.9642 14.7594 16.6984 14.9512 16.4803 15.1912V15.1912Z" stroke="black" stroke-width="3" stroke-linecap="round" stroke-linejoin="round"/>
</svg>
