<svg width="17" height="22" viewBox="0 0 17 22" fill="none" xmlns="http://www.w3.org/2000/svg">
<path d="M0.824219 22V0.671875H8.29492C10.8828 0.671875 12.8457 1.16992 14.1836 2.16602C15.5215 3.15234 16.1904 4.60254 16.1904 6.5166C16.1904 7.56152 15.9219 8.48438 15.3848 9.28516C14.8477 10.0762 14.1006 10.6572 13.1436 11.0283C14.2373 11.3018 15.0967 11.8535 15.7217 12.6836C16.3564 13.5137 16.6738 14.5293 16.6738 15.7305C16.6738 17.7812 16.0195 19.334 14.7109 20.3887C13.4023 21.4434 11.5371 21.9805 9.11523 22H0.824219ZM5.21875 12.7129V18.4697H8.9834C10.0186 18.4697 10.8242 18.2256 11.4004 17.7373C11.9863 17.2393 12.2793 16.5557 12.2793 15.6865C12.2793 13.7334 11.2686 12.7422 9.24707 12.7129H5.21875ZM5.21875 9.60742H8.4707C10.6875 9.56836 11.7959 8.68457 11.7959 6.95605C11.7959 5.98926 11.5127 5.2959 10.9463 4.87598C10.3896 4.44629 9.50586 4.23145 8.29492 4.23145H5.21875V9.60742Z" fill="black"/>
</svg>
