<svg width="27" height="27" viewBox="0 0 27 27" fill="none" xmlns="http://www.w3.org/2000/svg">
<path fill-rule="evenodd" clip-rule="evenodd" d="M8.4375 19.4062C8.4375 19.1825 8.52639 18.9679 8.68463 18.8096C8.84286 18.6514 9.05747 18.5625 9.28125 18.5625H24.4688C24.6925 18.5625 24.9071 18.6514 25.0654 18.8096C25.2236 18.9679 25.3125 19.1825 25.3125 19.4062C25.3125 19.63 25.2236 19.8446 25.0654 20.0029C24.9071 20.1611 24.6925 20.25 24.4688 20.25H9.28125C9.05747 20.25 8.84286 20.1611 8.68463 20.0029C8.52639 19.8446 8.4375 19.63 8.4375 19.4062ZM8.4375 12.6562C8.4375 12.4325 8.52639 12.2179 8.68463 12.0596C8.84286 11.9014 9.05747 11.8125 9.28125 11.8125H24.4688C24.6925 11.8125 24.9071 11.9014 25.0654 12.0596C25.2236 12.2179 25.3125 12.4325 25.3125 12.6562C25.3125 12.88 25.2236 13.0946 25.0654 13.2529C24.9071 13.4111 24.6925 13.5 24.4688 13.5H9.28125C9.05747 13.5 8.84286 13.4111 8.68463 13.2529C8.52639 13.0946 8.4375 12.88 8.4375 12.6562ZM8.4375 5.90625C8.4375 5.68247 8.52639 5.46786 8.68463 5.30963C8.84286 5.15139 9.05747 5.0625 9.28125 5.0625H24.4688C24.6925 5.0625 24.9071 5.15139 25.0654 5.30963C25.2236 5.46786 25.3125 5.68247 25.3125 5.90625C25.3125 6.13003 25.2236 6.34464 25.0654 6.50287C24.9071 6.66111 24.6925 6.75 24.4688 6.75H9.28125C9.05747 6.75 8.84286 6.66111 8.68463 6.50287C8.52639 6.34464 8.4375 6.13003 8.4375 5.90625Z" fill="black"/>
<path d="M2.89069 20.0222V19.2223H3.375C3.74119 19.2223 3.98756 18.9911 3.98756 18.6874C3.98756 18.3752 3.72094 18.1643 3.37838 18.1643C3.00206 18.1643 2.75906 18.4208 2.74894 18.6874H1.75331C1.78031 17.8993 2.38275 17.3593 3.41719 17.3593C4.40944 17.3559 5.02706 17.8504 5.03213 18.5456C5.03532 18.7841 4.95354 19.0159 4.80141 19.1996C4.64929 19.3832 4.43676 19.5067 4.20188 19.548V19.6037C4.46818 19.6236 4.71658 19.7453 4.89541 19.9436C5.07425 20.1419 5.16975 20.4016 5.16206 20.6685C5.16713 21.5679 4.31494 22.0185 3.3885 22.0185C2.2815 22.0185 1.701 21.3941 1.6875 20.6786H2.66963C2.68313 20.979 2.9835 21.195 3.38175 21.2001C3.81037 21.2001 4.09725 20.9554 4.09388 20.6094C4.0905 20.2804 3.83231 20.0222 3.39525 20.0222H2.889H2.89069ZM2.88394 12.0926H1.86469V12.0336C1.86469 11.3451 2.3625 10.6093 3.48131 10.6093C4.46512 10.6093 5.10131 11.1594 5.10131 11.8851C5.10131 12.5415 4.66762 12.9263 4.29806 13.3161L3.39187 14.2813V14.3319H5.1705V15.1875H1.92881V14.5209L3.54375 12.8503C3.77662 12.6107 4.03819 12.3373 4.03819 11.9931C4.03819 11.6893 3.79013 11.4531 3.46106 11.4531C3.3851 11.4503 3.30936 11.4631 3.23853 11.4907C3.1677 11.5183 3.10326 11.5601 3.04919 11.6135C2.99513 11.6669 2.95257 11.7309 2.92415 11.8014C2.89573 11.8719 2.88204 11.9474 2.88394 12.0234V12.0926ZM4.32675 8.4375H3.25519V4.93425H3.20288L2.19375 5.643V4.68619L3.25519 3.93863H4.32675V8.4375Z" fill="black"/>
</svg>
