<svg width="71" height="24" viewBox="0 0 71 24" fill="none" xmlns="http://www.w3.org/2000/svg">
<path d="M17.8467 15.8955C17.6807 18.1904 16.8311 19.9971 15.2979 21.3154C13.7744 22.6338 11.7627 23.293 9.2627 23.293C6.52832 23.293 4.375 22.375 2.80273 20.5391C1.24023 18.6934 0.458984 16.1641 0.458984 12.9512V11.6475C0.458984 9.59668 0.820312 7.79004 1.54297 6.22754C2.26562 4.66504 3.2959 3.46875 4.63379 2.63867C5.98145 1.79883 7.54395 1.37891 9.32129 1.37891C11.7822 1.37891 13.7646 2.03809 15.2686 3.35645C16.7725 4.6748 17.6416 6.52539 17.876 8.9082H13.4814C13.374 7.53125 12.9883 6.53516 12.3242 5.91992C11.6699 5.29492 10.6689 4.98242 9.32129 4.98242C7.85645 4.98242 6.75781 5.50977 6.02539 6.56445C5.30273 7.60937 4.93164 9.23535 4.91211 11.4424V13.0537C4.91211 15.3584 5.25879 17.043 5.95215 18.1074C6.65527 19.1719 7.75879 19.7041 9.2627 19.7041C10.6201 19.7041 11.6309 19.3965 12.2949 18.7812C12.9688 18.1562 13.3545 17.1943 13.4521 15.8955H17.8467ZM19.7949 14.9287C19.7949 13.3564 20.0977 11.9551 20.7031 10.7246C21.3086 9.49414 22.1777 8.54199 23.3105 7.86816C24.4531 7.19434 25.7764 6.85742 27.2803 6.85742C29.4189 6.85742 31.1621 7.51172 32.5098 8.82031C33.8672 10.1289 34.624 11.9062 34.7803 14.1523L34.8096 15.2363C34.8096 17.668 34.1309 19.6211 32.7734 21.0957C31.416 22.5605 29.5947 23.293 27.3096 23.293C25.0244 23.293 23.1982 22.5605 21.8311 21.0957C20.4736 19.6309 19.7949 17.6387 19.7949 15.1191V14.9287ZM24.0283 15.2363C24.0283 16.7402 24.3115 17.8926 24.8779 18.6934C25.4443 19.4844 26.2549 19.8799 27.3096 19.8799C28.335 19.8799 29.1357 19.4893 29.7119 18.708C30.2881 17.917 30.5762 16.6572 30.5762 14.9287C30.5762 13.4541 30.2881 12.3115 29.7119 11.501C29.1357 10.6904 28.3252 10.2852 27.2803 10.2852C26.2451 10.2852 25.4443 10.6904 24.8779 11.501C24.3115 12.3018 24.0283 13.5469 24.0283 15.2363ZM41.8848 23H37.6367V0.5H41.8848V23ZM54.5703 23C54.375 22.6191 54.2334 22.1455 54.1455 21.5791C53.1201 22.7217 51.7871 23.293 50.1465 23.293C48.5938 23.293 47.3047 22.8438 46.2793 21.9453C45.2637 21.0469 44.7559 19.9141 44.7559 18.5469C44.7559 16.8672 45.376 15.5781 46.6162 14.6797C47.8662 13.7812 49.668 13.3271 52.0215 13.3174H53.9697V12.4092C53.9697 11.6768 53.7793 11.0908 53.3984 10.6514C53.0273 10.2119 52.4365 9.99219 51.626 9.99219C50.9131 9.99219 50.3516 10.1631 49.9414 10.5049C49.541 10.8467 49.3408 11.3154 49.3408 11.9111H45.1074C45.1074 10.9932 45.3906 10.1436 45.957 9.3623C46.5234 8.58105 47.3242 7.9707 48.3594 7.53125C49.3945 7.08203 50.5566 6.85742 51.8457 6.85742C53.7988 6.85742 55.3467 7.35059 56.4893 8.33691C57.6416 9.31348 58.2178 10.6904 58.2178 12.4678V19.3379C58.2275 20.8418 58.4375 21.9795 58.8477 22.751V23H54.5703ZM51.0693 20.0557C51.6943 20.0557 52.2705 19.9189 52.7979 19.6455C53.3252 19.3623 53.7158 18.9863 53.9697 18.5176V15.793H52.3877C50.2686 15.793 49.1406 16.5254 49.0039 17.9902L48.9893 18.2393C48.9893 18.7666 49.1748 19.2012 49.5459 19.543C49.917 19.8848 50.4248 20.0557 51.0693 20.0557ZM70.376 11.1201C69.7998 11.042 69.292 11.0029 68.8525 11.0029C67.251 11.0029 66.2012 11.5449 65.7031 12.6289V23H61.4697V7.15039H65.4688L65.5859 9.04004C66.4355 7.58496 67.6123 6.85742 69.1162 6.85742C69.585 6.85742 70.0244 6.9209 70.4346 7.04785L70.376 11.1201Z" fill="black"/>
</svg>
