<svg width="88" height="30" viewBox="0 0 88 30" fill="none" xmlns="http://www.w3.org/2000/svg">
<path d="M17.8945 15.8955C17.7285 18.1904 16.8789 19.9971 15.3457 21.3154C13.8223 22.6338 11.8105 23.293 9.31055 23.293C6.57617 23.293 4.42285 22.375 2.85059 20.5391C1.28809 18.6934 0.506836 16.1641 0.506836 12.9512V11.6475C0.506836 9.59668 0.868164 7.79004 1.59082 6.22754C2.31348 4.66504 3.34375 3.46875 4.68164 2.63867C6.0293 1.79883 7.5918 1.37891 9.36914 1.37891C11.8301 1.37891 13.8125 2.03809 15.3164 3.35645C16.8203 4.6748 17.6895 6.52539 17.9238 8.9082H13.5293C13.4219 7.53125 13.0361 6.53516 12.3721 5.91992C11.7178 5.29492 10.7168 4.98242 9.36914 4.98242C7.9043 4.98242 6.80566 5.50977 6.07324 6.56445C5.35059 7.60937 4.97949 9.23535 4.95996 11.4424V13.0537C4.95996 15.3584 5.30664 17.043 6 18.1074C6.70312 19.1719 7.80664 19.7041 9.31055 19.7041C10.668 19.7041 11.6787 19.3965 12.3428 18.7812C13.0166 18.1562 13.4023 17.1943 13.5 15.8955H17.8945ZM19.8428 14.9287C19.8428 13.3564 20.1455 11.9551 20.751 10.7246C21.3564 9.49414 22.2256 8.54199 23.3584 7.86816C24.501 7.19434 25.8242 6.85742 27.3281 6.85742C29.4668 6.85742 31.21 7.51172 32.5576 8.82031C33.915 10.1289 34.6719 11.9062 34.8281 14.1523L34.8574 15.2363C34.8574 17.668 34.1787 19.6211 32.8213 21.0957C31.4639 22.5605 29.6426 23.293 27.3574 23.293C25.0723 23.293 23.2461 22.5605 21.8789 21.0957C20.5215 19.6309 19.8428 17.6387 19.8428 15.1191V14.9287ZM24.0762 15.2363C24.0762 16.7402 24.3594 17.8926 24.9258 18.6934C25.4922 19.4844 26.3027 19.8799 27.3574 19.8799C28.3828 19.8799 29.1836 19.4893 29.7598 18.708C30.3359 17.917 30.624 16.6572 30.624 14.9287C30.624 13.4541 30.3359 12.3115 29.7598 11.501C29.1836 10.6904 28.373 10.2852 27.3281 10.2852C26.293 10.2852 25.4922 10.6904 24.9258 11.501C24.3594 12.3018 24.0762 13.5469 24.0762 15.2363ZM51.7324 15.2217C51.7324 17.6631 51.1758 19.6211 50.0625 21.0957C48.959 22.5605 47.4648 23.293 45.5801 23.293C43.9785 23.293 42.6846 22.7363 41.6982 21.623V29.0938H37.4648V7.15039H41.3906L41.5371 8.70312C42.5625 7.47266 43.9004 6.85742 45.5508 6.85742C47.5039 6.85742 49.0225 7.58008 50.1064 9.02539C51.1904 10.4707 51.7324 12.4629 51.7324 15.002V15.2217ZM47.499 14.9141C47.499 13.4395 47.2354 12.3018 46.708 11.501C46.1904 10.7002 45.4336 10.2998 44.4375 10.2998C43.1094 10.2998 42.1963 10.8076 41.6982 11.8232V18.3125C42.2158 19.3574 43.1387 19.8799 44.4668 19.8799C46.4883 19.8799 47.499 18.2246 47.499 14.9141ZM58.8369 23H54.5889V7.15039H58.8369V23ZM54.3398 3.04883C54.3398 2.41406 54.5498 1.8916 54.9697 1.48145C55.3994 1.07129 55.9805 0.866211 56.7129 0.866211C57.4355 0.866211 58.0117 1.07129 58.4414 1.48145C58.8711 1.8916 59.0859 2.41406 59.0859 3.04883C59.0859 3.69336 58.8662 4.2207 58.4268 4.63086C57.9971 5.04102 57.4258 5.24609 56.7129 5.24609C56 5.24609 55.4238 5.04102 54.9844 4.63086C54.5547 4.2207 54.3398 3.69336 54.3398 3.04883ZM71.5225 23C71.3271 22.6191 71.1855 22.1455 71.0977 21.5791C70.0723 22.7217 68.7393 23.293 67.0986 23.293C65.5459 23.293 64.2568 22.8438 63.2314 21.9453C62.2158 21.0469 61.708 19.9141 61.708 18.5469C61.708 16.8672 62.3281 15.5781 63.5684 14.6797C64.8184 13.7812 66.6201 13.3271 68.9736 13.3174H70.9219V12.4092C70.9219 11.6768 70.7314 11.0908 70.3506 10.6514C69.9795 10.2119 69.3887 9.99219 68.5781 9.99219C67.8652 9.99219 67.3037 10.1631 66.8936 10.5049C66.4932 10.8467 66.293 11.3154 66.293 11.9111H62.0596C62.0596 10.9932 62.3428 10.1436 62.9092 9.3623C63.4756 8.58105 64.2764 7.9707 65.3115 7.53125C66.3467 7.08203 67.5088 6.85742 68.7979 6.85742C70.751 6.85742 72.2988 7.35059 73.4414 8.33691C74.5938 9.31348 75.1699 10.6904 75.1699 12.4678V19.3379C75.1797 20.8418 75.3896 21.9795 75.7998 22.751V23H71.5225ZM68.0215 20.0557C68.6465 20.0557 69.2227 19.9189 69.75 19.6455C70.2773 19.3623 70.668 18.9863 70.9219 18.5176V15.793H69.3398C67.2207 15.793 66.0928 16.5254 65.9561 17.9902L65.9414 18.2393C65.9414 18.7666 66.127 19.2012 66.498 19.543C66.8691 19.8848 67.377 20.0557 68.0215 20.0557ZM87.3281 11.1201C86.752 11.042 86.2441 11.0029 85.8047 11.0029C84.2031 11.0029 83.1533 11.5449 82.6553 12.6289V23H78.4219V7.15039H82.4209L82.5381 9.04004C83.3877 7.58496 84.5645 6.85742 86.0684 6.85742C86.5371 6.85742 86.9766 6.9209 87.3867 7.04785L87.3281 11.1201Z" fill="black"/>
</svg>
