<svg width="9" height="23" viewBox="0 0 9 23" fill="none" xmlns="http://www.w3.org/2000/svg">
<path d="M4.96875 23H0.808594L3.5625 7.15039H7.72266L4.96875 23ZM4.0459 3.12207C4.02637 2.46777 4.24121 1.92578 4.69043 1.49609C5.13965 1.06641 5.68164 0.851562 6.31641 0.851562C6.94141 0.832031 7.4834 1.02246 7.94238 1.42285C8.40137 1.82324 8.64062 2.34082 8.66016 2.97559C8.67969 3.58105 8.47461 4.1084 8.04492 4.55762C7.625 5.00684 7.07324 5.24121 6.38965 5.26074C5.77441 5.28027 5.23242 5.09473 4.76367 4.7041C4.30469 4.31348 4.06543 3.78613 4.0459 3.12207Z" fill="black"/>
</svg>
