<svg width="93" height="30" viewBox="0 0 93 30" fill="none" xmlns="http://www.w3.org/2000/svg">
<path d="M5.21875 19.4697H14.5498V23H0.824219V1.67188H5.21875V19.4697ZM21.2734 23H17.0254V7.15039H21.2734V23ZM16.7764 3.04883C16.7764 2.41406 16.9863 1.8916 17.4062 1.48145C17.8359 1.07129 18.417 0.866211 19.1494 0.866211C19.8721 0.866211 20.4482 1.07129 20.8779 1.48145C21.3076 1.8916 21.5225 2.41406 21.5225 3.04883C21.5225 3.69336 21.3027 4.2207 20.8633 4.63086C20.4336 5.04102 19.8623 5.24609 19.1494 5.24609C18.4365 5.24609 17.8604 5.04102 17.4209 4.63086C16.9912 4.2207 16.7764 3.69336 16.7764 3.04883ZM28.7441 7.15039L28.876 8.92285C29.999 7.5459 31.5176 6.85742 33.4316 6.85742C35.4727 6.85742 36.874 7.66309 37.6357 9.27441C38.749 7.66309 40.3359 6.85742 42.3965 6.85742C44.1152 6.85742 45.3945 7.36035 46.2344 8.36621C47.0742 9.3623 47.4941 10.8662 47.4941 12.8779V23H43.2461V12.8926C43.2461 11.9941 43.0703 11.3398 42.7188 10.9297C42.3672 10.5098 41.7471 10.2998 40.8584 10.2998C39.5889 10.2998 38.71 10.9053 38.2217 12.1162L38.2363 23H34.0029V12.9072C34.0029 11.9893 33.8223 11.3252 33.4609 10.915C33.0996 10.5049 32.4844 10.2998 31.6152 10.2998C30.4141 10.2998 29.5449 10.7979 29.0078 11.7939V23H24.7744V7.15039H28.7441ZM65.0283 15.2217C65.0283 17.6631 64.4717 19.6211 63.3584 21.0957C62.2549 22.5605 60.7607 23.293 58.876 23.293C57.2744 23.293 55.9805 22.7363 54.9941 21.623V29.0938H50.7607V7.15039H54.6865L54.833 8.70312C55.8584 7.47266 57.1963 6.85742 58.8467 6.85742C60.7998 6.85742 62.3184 7.58008 63.4023 9.02539C64.4863 10.4707 65.0283 12.4629 65.0283 15.002V15.2217ZM60.7949 14.9141C60.7949 13.4395 60.5312 12.3018 60.0039 11.501C59.4863 10.7002 58.7295 10.2998 57.7334 10.2998C56.4053 10.2998 55.4922 10.8076 54.9941 11.8232V18.3125C55.5117 19.3574 56.4346 19.8799 57.7627 19.8799C59.7842 19.8799 60.7949 18.2246 60.7949 14.9141ZM76.8496 23C76.6543 22.6191 76.5127 22.1455 76.4248 21.5791C75.3994 22.7217 74.0664 23.293 72.4258 23.293C70.873 23.293 69.584 22.8438 68.5586 21.9453C67.543 21.0469 67.0352 19.9141 67.0352 18.5469C67.0352 16.8672 67.6553 15.5781 68.8955 14.6797C70.1455 13.7812 71.9473 13.3271 74.3008 13.3174H76.249V12.4092C76.249 11.6768 76.0586 11.0908 75.6777 10.6514C75.3066 10.2119 74.7158 9.99219 73.9053 9.99219C73.1924 9.99219 72.6309 10.1631 72.2207 10.5049C71.8203 10.8467 71.6201 11.3154 71.6201 11.9111H67.3867C67.3867 10.9932 67.6699 10.1436 68.2363 9.3623C68.8027 8.58105 69.6035 7.9707 70.6387 7.53125C71.6738 7.08203 72.8359 6.85742 74.125 6.85742C76.0781 6.85742 77.626 7.35059 78.7686 8.33691C79.9209 9.31348 80.4971 10.6904 80.4971 12.4678V19.3379C80.5068 20.8418 80.7168 21.9795 81.127 22.751V23H76.8496ZM73.3486 20.0557C73.9736 20.0557 74.5498 19.9189 75.0771 19.6455C75.6045 19.3623 75.9951 18.9863 76.249 18.5176V15.793H74.667C72.5479 15.793 71.4199 16.5254 71.2832 17.9902L71.2686 18.2393C71.2686 18.7666 71.4541 19.2012 71.8252 19.543C72.1963 19.8848 72.7041 20.0557 73.3486 20.0557ZM92.6553 11.1201C92.0791 11.042 91.5713 11.0029 91.1318 11.0029C89.5303 11.0029 88.4805 11.5449 87.9824 12.6289V23H83.749V7.15039H87.748L87.8652 9.04004C88.7148 7.58496 89.8916 6.85742 91.3955 6.85742C91.8643 6.85742 92.3037 6.9209 92.7139 7.04785L92.6553 11.1201Z" fill="black"/>
</svg>
