<svg width="18" height="22" viewBox="0 0 18 22" fill="none" xmlns="http://www.w3.org/2000/svg">
<path d="M5.11621 14.4854V22H0.72168V0.671875H9.04199C10.6436 0.671875 12.0498 0.964844 13.2607 1.55078C14.4814 2.13672 15.4189 2.97168 16.0732 4.05566C16.7275 5.12988 17.0547 6.35547 17.0547 7.73242C17.0547 9.82227 16.3369 11.4727 14.9014 12.6836C13.4756 13.8848 11.498 14.4854 8.96875 14.4854H5.11621ZM5.11621 10.9258H9.04199C10.2041 10.9258 11.0879 10.6523 11.6934 10.1055C12.3086 9.55859 12.6162 8.77734 12.6162 7.76172C12.6162 6.7168 12.3086 5.87207 11.6934 5.22754C11.0781 4.58301 10.2285 4.25098 9.14453 4.23145H5.11621V10.9258Z" fill="black"/>
</svg>
