<svg width="22" height="9" viewBox="0 0 22 9" fill="none" xmlns="http://www.w3.org/2000/svg">
<path d="M3.35352 0.00195312L5.3457 1.15918C4.50586 2.4873 4.07129 3.83496 4.04199 5.20215V7.64844H0.6875V5.45117C0.6875 4.5332 0.941406 3.55664 1.44922 2.52148C1.9668 1.47656 2.60156 0.636719 3.35352 0.00195312ZM8.37793 0.00195312L10.3701 1.15918C9.53027 2.4873 9.0957 3.83496 9.06641 5.20215V7.64844H5.71191V5.45117C5.71191 4.5332 5.96582 3.55664 6.47363 2.52148C6.99121 1.47656 7.62598 0.636719 8.37793 0.00195312ZM13.7246 8.21973L11.7324 7.0625C12.5723 5.74414 13.0068 4.38184 13.0361 2.97559V0.5H16.4053V2.77051C16.4053 3.64941 16.1611 4.60156 15.6729 5.62695C15.1846 6.65234 14.5352 7.5166 13.7246 8.21973ZM18.8076 8.21973L16.8154 7.0625C17.6553 5.74414 18.0898 4.38184 18.1191 2.97559V0.5H21.4883V2.77051C21.4883 3.64941 21.2441 4.60156 20.7559 5.62695C20.2676 6.65234 19.6182 7.5166 18.8076 8.21973Z" fill="black"/>
</svg>
